<svg width="19" height="60" xmlns="http://www.w3.org/2000/svg" xmlns:xlink="http://www.w3.org/1999/xlink" xmlns:svgjs="http://svgjs.com/svgjs" viewBox="0.348 0 18.305 60" fill="#00c2f0"><svg xmlns="http://www.w3.org/2000/svg" width="19" height="60" viewBox="2 2.118 18 59.003"><path paint-order="stroke fill markers" fill-rule="evenodd" d="M18.134 2.62l-16 27.775a1.003 1.003 0 0 0 .366 1.37.999.999 0 0 0 1.366-.367l16-27.776a1.004 1.004 0 0 0-.366-1.37 1 1 0 0 0-1.366.368zm0 57.995l-16-28.069a1.02 1.02 0 0 1 .366-1.383.993.993 0 0 1 1.366.37l16 28.069a1.02 1.02 0 0 1-.366 1.384.993.993 0 0 1-1.366-.371z"/></svg></svg>