<svg width="7" height="11" xmlns="http://www.w3.org/2000/svg" xmlns:xlink="http://www.w3.org/1999/xlink" xmlns:svgjs="http://svgjs.com/svgjs" viewBox="0.552 0 5.896 11" fill="#fff"><svg xmlns="http://www.w3.org/2000/svg" width="7" height="11" viewBox="1.454 1.968 5.534 10.325"><path paint-order="stroke fill markers" fill-rule="evenodd" d="M1.575 11.577l4.703-4.744a.414.414 0 0 1 .588 0 .422.422 0 0 1 0 .594L2.163 12.17a.413.413 0 0 1-.588 0 .422.422 0 0 1 0-.593zm4.703-4.15L1.575 2.684a.422.422 0 0 1 0-.594.413.413 0 0 1 .588 0l4.703 4.743a.422.422 0 0 1 0 .594.413.413 0 0 1-.588 0z"/></svg></svg>