<svg width="7" height="11" xmlns="http://www.w3.org/2000/svg" xmlns:xlink="http://www.w3.org/1999/xlink" xmlns:svgjs="http://svgjs.com/svgjs" viewBox="0.311 0 6.378 11" fill="#fff"><svg xmlns="http://www.w3.org/2000/svg" width="7" height="11" viewBox="1.987 1.099 5.819 10.037"><path paint-order="stroke fill markers" fill-rule="evenodd" d="M7.679 10.44L2.733 5.83a.46.46 0 0 0-.618 0 .388.388 0 0 0 0 .576l4.945 4.61c.171.16.448.16.619 0a.388.388 0 0 0 0-.576zM2.733 6.406L7.68 1.795a.389.389 0 0 0 0-.577.46.46 0 0 0-.619 0L2.115 5.83a.388.388 0 0 0 0 .577c.17.159.448.159.618 0z"/></svg></svg>